<?xml version="1.0" encoding="UTF-8"?>
<svg version="1.1" xmlns="http://www.w3.org/2000/svg" width="32" height="32">
<path d="M0 0 C10.56 0 21.12 0 32 0 C32 10.56 32 21.12 32 32 C21.44 32 10.88 32 0 32 C0 21.44 0 10.88 0 0 Z " fill="#715536" transform="translate(0,0)"/>
<path d="M0 0 C10.56 0 21.12 0 32 0 C32 10 32 10 31 12 C30.34 12 29.68 12 29 12 C29 11.34 29 10.68 29 10 C28.34 10 27.68 10 27 10 C27 10.66 27 11.32 27 12 C21.98678598 12.92079441 18.01190002 12.74250371 13 12 C10.18762459 12.35974895 10.18762459 12.35974895 8 13 C8 12.01 8 11.02 8 10 C7.01 10 6.02 10 5 10 C5 10.66 5 11.32 5 12 C3.35 12 1.7 12 0 12 C0 8.04 0 4.08 0 0 Z " fill="#5CA13D" transform="translate(0,0)"/>
<path d="M0 0 C2.31 0.33 4.62 0.66 7 1 C7 1.66 7 2.32 7 3 C8.65 3 10.3 3 12 3 C12 2.34 12 1.68 12 1 C14.475 1.99 14.475 1.99 17 3 C17.04898437 3.85464844 17.09796875 4.70929687 17.1484375 5.58984375 C17.22320313 6.69457031 17.29796875 7.79929687 17.375 8.9375 C17.44460937 10.03964844 17.51421875 11.14179688 17.5859375 12.27734375 C17.72257812 13.17582031 17.85921875 14.07429688 18 15 C18.66 15.33 19.32 15.66 20 16 C19.34 16 18.68 16 18 16 C18.66 17.32 19.32 18.64 20 20 C13.4 20 6.8 20 0 20 C0 13.4 0 6.8 0 0 Z " fill="#6D4F33" transform="translate(0,12)"/>
<path d="M0 0 C0 5.94 0 11.88 0 18 C-0.66 18 -1.32 18 -2 18 C-2.33 15.69 -2.66 13.38 -3 11 C-3.66 11 -4.32 11 -5 11 C-5 11.66 -5 12.32 -5 13 C-5.66 13 -6.32 13 -7 13 C-7.33 11.35 -7.66 9.7 -8 8 C-8.66 8 -9.32 8 -10 8 C-10 7.34 -10 6.68 -10 6 C-10.66 6 -11.32 6 -12 6 C-12 5.34 -12 4.68 -12 4 C-12.66 3.34 -13.32 2.68 -14 2 C-11.44667906 0.72333953 -9.27980073 0.67096147 -6.4375 0.4375 C-4.95056641 0.31181641 -4.95056641 0.31181641 -3.43359375 0.18359375 C-1 0 -1 0 0 0 Z " fill="#876346" transform="translate(32,14)"/>
<path d="M0 0 C1.65 0 3.3 0 5 0 C5 0.99 5 1.98 5 3 C6.32 3 7.64 3 9 3 C9.33 3.99 9.66 4.98 10 6 C10.66 6.33 11.32 6.66 12 7 C12.33 5.68 12.66 4.36 13 3 C13 3.66 13 4.32 13 5 C13.66 5.33 14.32 5.66 15 6 C14.34 6 13.68 6 13 6 C13.66 7.32 14.32 8.64 15 10 C10.71 10 6.42 10 2 10 C2 9.34 2 8.68 2 8 C0.02 8.33 -1.96 8.66 -4 9 C-4 7.68 -4 6.36 -4 5 C-2.68 5 -1.36 5 0 5 C0 3.35 0 1.7 0 0 Z " fill="#79563B" transform="translate(5,22)"/>
<path d="M0 0 C4.95 0 9.9 0 15 0 C13.68 1.65 12.36 3.3 11 5 C11 4.34 11 3.68 11 3 C10.46375 3.66 9.9275 4.32 9.375 5 C7 7 7 7 3.75 7.25 C2.8425 7.1675 1.935 7.085 1 7 C1 6.34 1 5.68 1 5 C0.01 5 -0.98 5 -2 5 C-2 4.34 -2 3.68 -2 3 C0.97 3 3.94 3 7 3 C7 2.34 7 1.68 7 1 C4.69 1.33 2.38 1.66 0 2 C0 1.34 0 0.68 0 0 Z " fill="#4D9C36" transform="translate(17,0)"/>
<path d="M0 0 C0.99 0.495 0.99 0.495 2 1 C2 2.32 2 3.64 2 5 C3.98 4.67 5.96 4.34 8 4 C8 4.66 8 5.32 8 6 C6.35 6.66 4.7 7.32 3 8 C3 9.32 3 10.64 3 12 C3.66 12.33 4.32 12.66 5 13 C5 13.66 5 14.32 5 15 C3.68 15 2.36 15 1 15 C1.99 16.485 1.99 16.485 3 18 C4.32 18 5.64 18 7 18 C7 18.66 7 19.32 7 20 C4.69 20 2.38 20 0 20 C0 13.4 0 6.8 0 0 Z " fill="#6D4F31" transform="translate(0,12)"/>
<path d="M0 0 C0 2.64 0 5.28 0 8 C-0.66 8 -1.32 8 -2 8 C-2.33 6.68 -2.66 5.36 -3 4 C-3.66 4 -4.32 4 -5 4 C-5 4.66 -5 5.32 -5 6 C-6.65 6.66 -8.3 7.32 -10 8 C-10 7.34 -10 6.68 -10 6 C-10.66 6 -11.32 6 -12 6 C-12 5.34 -12 4.68 -12 4 C-12.66 3.34 -13.32 2.68 -14 2 C-11.44667906 0.72333953 -9.27980073 0.67096147 -6.4375 0.4375 C-4.95056641 0.31181641 -4.95056641 0.31181641 -3.43359375 0.18359375 C-1 0 -1 0 0 0 Z " fill="#906A4B" transform="translate(32,14)"/>
<path d="M0 0 C2.97 0.495 2.97 0.495 6 1 C6 1.66 6 2.32 6 3 C7.65 3 9.3 3 11 3 C11 2.34 11 1.68 11 1 C13.475 1.99 13.475 1.99 16 3 C16 3.99 16 4.98 16 6 C14.35 5.67 12.7 5.34 11 5 C10.67 5.99 10.34 6.98 10 8 C9.67 7.34 9.34 6.68 9 6 C7.10466658 5.53476937 7.10466658 5.53476937 4.9375 5.375 C3.638125 5.25125 2.33875 5.1275 1 5 C0.67 3.35 0.34 1.7 0 0 Z " fill="#8D6849" transform="translate(1,12)"/>
<path d="M0 0 C1.32 0.33 2.64 0.66 4 1 C3.67 1.66 3.34 2.32 3 3 C3.66 3.66 4.32 4.32 5 5 C4.34 5 3.68 5 3 5 C3 5.66 3 6.32 3 7 C4.32 7 5.64 7 7 7 C7 7.99 7 8.98 7 10 C6.34 10 5.68 10 5 10 C5 10.66 5 11.32 5 12 C3.35 12 1.7 12 0 12 C0 8.04 0 4.08 0 0 Z " fill="#529B37" transform="translate(0,0)"/>
<path d="M0 0 C0.33 0 0.66 0 1 0 C1.0270043 1.45823212 1.04639787 2.91660675 1.0625 4.375 C1.07410156 5.18710938 1.08570313 5.99921875 1.09765625 6.8359375 C1 9 1 9 0 11 C-0.66 11 -1.32 11 -2 11 C-2 10.34 -2 9.68 -2 9 C-2.66 9 -3.32 9 -4 9 C-4 8.01 -4 7.02 -4 6 C-4.99 5.67 -5.98 5.34 -7 5 C-7 4.34 -7 3.68 -7 3 C-5.5459375 2.5359375 -5.5459375 2.5359375 -4.0625 2.0625 C-1.15934208 1.30476658 -1.15934208 1.30476658 0 0 Z " fill="#68A543" transform="translate(31,1)"/>
<path d="M0 0 C1.98 0 3.96 0 6 0 C6.33 0.99 6.66 1.98 7 3 C7.66 3.33 8.32 3.66 9 4 C9.33 2.68 9.66 1.36 10 0 C10 0.66 10 1.32 10 2 C10.66 2.33 11.32 2.66 12 3 C11.34 3 10.68 3 10 3 C10.66 4.32 11.32 5.64 12 7 C6.25 7.125 6.25 7.125 4 6 C4 5.01 4 4.02 4 3 C2.68 2.67 1.36 2.34 0 2 C0 1.34 0 0.68 0 0 Z " fill="#906A4A" transform="translate(8,25)"/>
<path d="M0 0 C0 0.66 0 1.32 0 2 C3.465 1.505 3.465 1.505 7 1 C7 1.66 7 2.32 7 3 C1.375 4.125 1.375 4.125 -2 3 C-2.33 3.66 -2.66 4.32 -3 5 C-3 4.34 -3 3.68 -3 3 C-3.66 3.66 -4.32 4.32 -5 5 C-5 5.66 -5 6.32 -5 7 C-5.66 7 -6.32 7 -7 7 C-7 5.35 -7 3.7 -7 2 C-7.66 1.67 -8.32 1.34 -9 1 C-6.04335481 -0.4783226 -3.25770263 -0.06032783 0 0 Z " fill="#63A844" transform="translate(17,0)"/>
<path d="M0 0 C1.65 0 3.3 0 5 0 C4.01 0.495 4.01 0.495 3 1 C3.33 2.32 3.66 3.64 4 5 C4.66 5 5.32 5 6 5 C5.67 5.99 5.34 6.98 5 8 C3.35 7.67 1.7 7.34 0 7 C0.33 6.01 0.66 5.02 1 4 C0.34 3.67 -0.32 3.34 -1 3 C-0.34 3 0.32 3 1 3 C0.67 2.01 0.34 1.02 0 0 Z " fill="#704F34" transform="translate(26,17)"/>
<path d="M0 0 C0 0.66 0 1.32 0 2 C0.99 2.33 1.98 2.66 3 3 C3 3.66 3 4.32 3 5 C2.01 5.33 1.02 5.66 0 6 C0 5.34 0 4.68 0 4 C-1.98 4.33 -3.96 4.66 -6 5 C-6 3.68 -6 2.36 -6 1 C-3.92446352 0.4465236 -2.15634036 0 0 0 Z " fill="#8F6949" transform="translate(7,26)"/>
<path d="M0 0 C1.32 0 2.64 0 4 0 C4 1.32 4 2.64 4 4 C3.01 4 2.02 4 1 4 C1 4.99 1 5.98 1 7 C0.01 6.67 -0.98 6.34 -2 6 C-1.125 1.125 -1.125 1.125 0 0 Z " fill="#936B48" transform="translate(4,18)"/>
<path d="M0 0 C0.99 0 1.98 0 3 0 C3 1.65 3 3.3 3 5 C0.69 5.33 -1.62 5.66 -4 6 C-3.67 4.35 -3.34 2.7 -3 1 C-2.01 1.33 -1.02 1.66 0 2 C0 1.34 0 0.68 0 0 Z " fill="#4F9937" transform="translate(24,7)"/>
<path d="M0 0 C0 2.64 0 5.28 0 8 C-0.66 8 -1.32 8 -2 8 C-2.33 6.68 -2.66 5.36 -3 4 C-4.32 3.67 -5.64 3.34 -7 3 C-7 2.34 -7 1.68 -7 1 C-1.125 0 -1.125 0 0 0 Z " fill="#947152" transform="translate(32,14)"/>
<path d="M0 0 C0.99 0 1.98 0 3 0 C3 0.99 3 1.98 3 3 C4.97536745 2.65213292 4.97536745 2.65213292 7 2 C7.33 1.34 7.66 0.68 8 0 C8.33 0.99 8.66 1.98 9 3 C8.34 3 7.68 3 7 3 C7 3.66 7 4.32 7 5 C5.35 5 3.7 5 2 5 C2 4.34 2 3.68 2 3 C1.01 2.67 0.02 2.34 -1 2 C-0.67 1.34 -0.34 0.68 0 0 Z " fill="#5B562D" transform="translate(5,10)"/>
<path d="M0 0 C0.99 0.495 0.99 0.495 2 1 C2 2.32 2 3.64 2 5 C3.98 4.67 5.96 4.34 8 4 C8 4.66 8 5.32 8 6 C5.09399739 7.25664978 3.20395416 8 0 8 C0 5.36 0 2.72 0 0 Z " fill="#765538" transform="translate(0,12)"/>
<path d="M0 0 C0.99 0.33 1.98 0.66 3 1 C3 1.66 3 2.32 3 3 C3.31478446 4.33783393 3.64587656 5.67203709 4 7 C2.35 7 0.7 7 -1 7 C-1.625 5.1875 -1.625 5.1875 -2 3 C-1.34 2.01 -0.68 1.02 0 0 Z " fill="#68AA4B" transform="translate(4,0)"/>
<path d="M0 0 C3.465 1.485 3.465 1.485 7 3 C6.38125 3.20625 5.7625 3.4125 5.125 3.625 C2.15346355 5.54775888 1.86975341 7.66594527 1 11 C0.67 11 0.34 11 0 11 C0 9.02 0 7.04 0 5 C-0.66 4.67 -1.32 4.34 -2 4 C-1.34 4 -0.68 4 0 4 C0 2.68 0 1.36 0 0 Z " fill="#6B4D30" transform="translate(17,14)"/>
<path d="M0 0 C1.32 0.33 2.64 0.66 4 1 C4 2.98 4 4.96 4 7 C2.68 6.34 1.36 5.68 0 5 C0 3.35 0 1.7 0 0 Z " fill="#946D4D" transform="translate(13,18)"/>
<path d="M0 0 C0.66 0.99 1.32 1.98 2 3 C0.25 4.5625 0.25 4.5625 -2 6 C-4.25 5.6875 -4.25 5.6875 -6 5 C-5.67 4.34 -5.34 3.68 -5 3 C-4.34 3.33 -3.68 3.66 -3 4 C-2.67 3.01 -2.34 2.02 -2 1 C-1.34 1.33 -0.68 1.66 0 2 C0 1.34 0 0.68 0 0 Z " fill="#7D5A40" transform="translate(24,25)"/>
<path d="M0 0 C3 1 3 1 4 3 C3.34 3.66 2.68 4.32 2 5 C2 5.66 2 6.32 2 7 C1.34 7 0.68 7 0 7 C0 5.35 0 3.7 0 2 C-0.66 1.67 -1.32 1.34 -2 1 C-1.34 0.67 -0.68 0.34 0 0 Z " fill="#6EAD50" transform="translate(10,0)"/>
</svg>
